<mxfile host="65bd71144e">
    <diagram name="Page-1" id="iFuYT253LAI2cr_2TafU">
        <mxGraphModel dx="3346" dy="1144" grid="1" gridSize="10" guides="1" tooltips="1" connect="1" arrows="1" fold="1" page="1" pageScale="1" pageWidth="850" pageHeight="1100" background="#ffffff" math="0" shadow="0">
            <root>
                <mxCell id="0"/>
                <mxCell id="1" parent="0"/>
                <mxCell id="5" value="" style="rounded=0;whiteSpace=wrap;html=1;" vertex="1" parent="1">
                    <mxGeometry x="-560" y="280" width="960" height="800" as="geometry"/>
                </mxCell>
                <mxCell id="umGk_1h2bwM0Oz5YRKmP-31" value="" style="group" parent="1" vertex="1" connectable="0">
                    <mxGeometry x="-680" y="310" width="1020" height="520" as="geometry"/>
                </mxCell>
                <mxCell id="umGk_1h2bwM0Oz5YRKmP-20" value="" style="shape=cylinder3;whiteSpace=wrap;html=1;boundedLbl=1;backgroundOutline=1;size=15;" parent="umGk_1h2bwM0Oz5YRKmP-31" vertex="1">
                    <mxGeometry x="560" y="472" width="60" height="40" as="geometry"/>
                </mxCell>
                <mxCell id="umGk_1h2bwM0Oz5YRKmP-2" value="" style="rounded=1;whiteSpace=wrap;html=1;strokeWidth=2;strokeColor=#66B2FF;" parent="umGk_1h2bwM0Oz5YRKmP-31" vertex="1">
                    <mxGeometry x="250" y="40" width="770" height="370" as="geometry"/>
                </mxCell>
                <mxCell id="umGk_1h2bwM0Oz5YRKmP-3" value="&lt;font color=&quot;#cc6600&quot; style=&quot;font-size: 26px;&quot;&gt;device&amp;nbsp;&lt;/font&gt;&lt;div style=&quot;font-size: 26px;&quot;&gt;&lt;font color=&quot;#cc6600&quot; style=&quot;font-size: 26px;&quot;&gt;interface&lt;/font&gt;&lt;/div&gt;" style="rounded=1;whiteSpace=wrap;html=1;strokeColor=#d88322;strokeWidth=2;" parent="umGk_1h2bwM0Oz5YRKmP-31" vertex="1">
                    <mxGeometry x="310" y="60" width="190" height="90" as="geometry"/>
                </mxCell>
                <mxCell id="umGk_1h2bwM0Oz5YRKmP-4" value="&lt;span style=&quot;font-size: 26px;&quot;&gt;&lt;font color=&quot;#ff00ff&quot;&gt;INDI&lt;/font&gt;&lt;/span&gt;&lt;div&gt;&lt;span style=&quot;font-size: 26px;&quot;&gt;&lt;font color=&quot;#ff00ff&quot;&gt;soft-RT IPC&lt;/font&gt;&lt;/span&gt;&lt;/div&gt;" style="rounded=1;whiteSpace=wrap;html=1;strokeColor=#CC00CC;strokeWidth=2;" parent="umGk_1h2bwM0Oz5YRKmP-31" vertex="1">
                    <mxGeometry x="525" y="60" width="205" height="90" as="geometry"/>
                </mxCell>
                <mxCell id="umGk_1h2bwM0Oz5YRKmP-5" value="&lt;span style=&quot;font-size: 26px;&quot;&gt;&lt;font color=&quot;#00ff00&quot;&gt;ISIO&lt;/font&gt;&lt;/span&gt;&lt;div&gt;&lt;span style=&quot;font-size: 26px;&quot;&gt;&lt;font color=&quot;#00ff00&quot;&gt;low-latency IPC&lt;/font&gt;&lt;/span&gt;&lt;/div&gt;" style="rounded=1;whiteSpace=wrap;html=1;strokeColor=#00FF00;strokeWidth=2;" parent="umGk_1h2bwM0Oz5YRKmP-31" vertex="1">
                    <mxGeometry x="755" y="60" width="205" height="90" as="geometry"/>
                </mxCell>
                <mxCell id="umGk_1h2bwM0Oz5YRKmP-7" value="&lt;font style=&quot;font-size: 26px;&quot;&gt;Event Loop&lt;/font&gt;" style="rounded=1;whiteSpace=wrap;html=1;" parent="umGk_1h2bwM0Oz5YRKmP-31" vertex="1">
                    <mxGeometry x="310" y="200" width="250" height="110" as="geometry"/>
                </mxCell>
                <mxCell id="umGk_1h2bwM0Oz5YRKmP-8" value="&lt;font style=&quot;font-size: 26px;&quot;&gt;low-latency thread(s)&lt;/font&gt;&lt;div&gt;&lt;font style=&quot;font-size: 26px;&quot;&gt;(cpu isolated, r/t priority, etc.)&lt;/font&gt;&lt;/div&gt;" style="rounded=1;whiteSpace=wrap;html=1;" parent="umGk_1h2bwM0Oz5YRKmP-31" vertex="1">
                    <mxGeometry x="610" y="200" width="350" height="110" as="geometry"/>
                </mxCell>
                <mxCell id="umGk_1h2bwM0Oz5YRKmP-10" value="&lt;font style=&quot;font-size: 26px;&quot;&gt;usb, RS232, modbus, telnet, PCIe, etc.&lt;/font&gt;" style="rounded=1;whiteSpace=wrap;html=1;strokeColor=#CC6600;strokeWidth=2;fontColor=#CC6600;" parent="umGk_1h2bwM0Oz5YRKmP-31" vertex="1">
                    <mxGeometry x="290" y="432" width="240" height="88" as="geometry"/>
                </mxCell>
                <mxCell id="umGk_1h2bwM0Oz5YRKmP-12" value="" style="endArrow=classic;startArrow=classic;html=1;rounded=0;entryX=0;entryY=0.5;entryDx=0;entryDy=0;strokeColor=#CC6600;strokeWidth=3;" parent="umGk_1h2bwM0Oz5YRKmP-31" target="umGk_1h2bwM0Oz5YRKmP-3" edge="1">
                    <mxGeometry width="50" height="50" relative="1" as="geometry">
                        <mxPoint x="290" y="480" as="sourcePoint"/>
                        <mxPoint x="710" y="120" as="targetPoint"/>
                        <Array as="points">
                            <mxPoint x="200" y="480"/>
                            <mxPoint x="200" y="105"/>
                        </Array>
                    </mxGeometry>
                </mxCell>
                <mxCell id="umGk_1h2bwM0Oz5YRKmP-15" value="&lt;font style=&quot;font-size: 26px;&quot;&gt;config&lt;/font&gt;" style="rounded=1;whiteSpace=wrap;html=1;" parent="umGk_1h2bwM0Oz5YRKmP-31" vertex="1">
                    <mxGeometry x="520" y="362" width="140" height="40" as="geometry"/>
                </mxCell>
                <mxCell id="umGk_1h2bwM0Oz5YRKmP-16" value="&lt;font style=&quot;font-size: 26px;&quot;&gt;logs&lt;/font&gt;&lt;span style=&quot;color: rgba(0, 0, 0, 0); font-family: monospace; font-size: 0px; text-align: start; text-wrap: nowrap;&quot;&gt;%3CmxGraphModel%3E%3Croot%3E%3CmxCell%20id%3D%220%22%2F%3E%3CmxCell%20id%3D%221%22%20parent%3D%220%22%2F%3E%3CmxCell%20id%3D%222%22%20value%3D%22%26lt%3Bfont%20style%3D%26quot%3Bfont-size%3A%2026px%3B%26quot%3B%26gt%3Bconfig%26lt%3B%2Ffont%26gt%3B%22%20style%3D%22rounded%3D1%3BwhiteSpace%3Dwrap%3Bhtml%3D1%3B%22%20vertex%3D%221%22%20parent%3D%221%22%3E%3CmxGeometry%20x%3D%22-30%22%20y%3D%22740%22%20width%3D%22140%22%20height%3D%2240%22%20as%3D%22geometry%22%2F%3E%3C%2FmxCell%3E%3C%2Froot%3E%3C%2FmxGraphModel%3E&lt;/span&gt;" style="rounded=1;whiteSpace=wrap;html=1;" parent="umGk_1h2bwM0Oz5YRKmP-31" vertex="1">
                    <mxGeometry x="680" y="362" width="140" height="40" as="geometry"/>
                </mxCell>
                <mxCell id="umGk_1h2bwM0Oz5YRKmP-17" value="&lt;span style=&quot;font-size: 26px;&quot;&gt;telemetry&lt;/span&gt;" style="rounded=1;whiteSpace=wrap;html=1;" parent="umGk_1h2bwM0Oz5YRKmP-31" vertex="1">
                    <mxGeometry x="840" y="362" width="140" height="40" as="geometry"/>
                </mxCell>
                <mxCell id="umGk_1h2bwM0Oz5YRKmP-19" value="" style="shape=cylinder3;whiteSpace=wrap;html=1;boundedLbl=1;backgroundOutline=1;size=15;" parent="umGk_1h2bwM0Oz5YRKmP-31" vertex="1">
                    <mxGeometry x="560" y="462" width="60" height="40" as="geometry"/>
                </mxCell>
                <mxCell id="umGk_1h2bwM0Oz5YRKmP-18" value="" style="shape=cylinder3;whiteSpace=wrap;html=1;boundedLbl=1;backgroundOutline=1;size=15;" parent="umGk_1h2bwM0Oz5YRKmP-31" vertex="1">
                    <mxGeometry x="560" y="442" width="60" height="40" as="geometry"/>
                </mxCell>
                <mxCell id="umGk_1h2bwM0Oz5YRKmP-21" value="" style="shape=cylinder3;whiteSpace=wrap;html=1;boundedLbl=1;backgroundOutline=1;size=15;" parent="umGk_1h2bwM0Oz5YRKmP-31" vertex="1">
                    <mxGeometry x="720" y="472" width="60" height="40" as="geometry"/>
                </mxCell>
                <mxCell id="umGk_1h2bwM0Oz5YRKmP-22" value="" style="shape=cylinder3;whiteSpace=wrap;html=1;boundedLbl=1;backgroundOutline=1;size=15;" parent="umGk_1h2bwM0Oz5YRKmP-31" vertex="1">
                    <mxGeometry x="720" y="462" width="60" height="40" as="geometry"/>
                </mxCell>
                <mxCell id="umGk_1h2bwM0Oz5YRKmP-23" value="" style="shape=cylinder3;whiteSpace=wrap;html=1;boundedLbl=1;backgroundOutline=1;size=15;" parent="umGk_1h2bwM0Oz5YRKmP-31" vertex="1">
                    <mxGeometry x="720" y="442" width="60" height="40" as="geometry"/>
                </mxCell>
                <mxCell id="umGk_1h2bwM0Oz5YRKmP-24" value="" style="shape=cylinder3;whiteSpace=wrap;html=1;boundedLbl=1;backgroundOutline=1;size=15;" parent="umGk_1h2bwM0Oz5YRKmP-31" vertex="1">
                    <mxGeometry x="880" y="472" width="60" height="40" as="geometry"/>
                </mxCell>
                <mxCell id="umGk_1h2bwM0Oz5YRKmP-25" value="" style="shape=cylinder3;whiteSpace=wrap;html=1;boundedLbl=1;backgroundOutline=1;size=15;" parent="umGk_1h2bwM0Oz5YRKmP-31" vertex="1">
                    <mxGeometry x="880" y="462" width="60" height="40" as="geometry"/>
                </mxCell>
                <mxCell id="umGk_1h2bwM0Oz5YRKmP-26" value="" style="shape=cylinder3;whiteSpace=wrap;html=1;boundedLbl=1;backgroundOutline=1;size=15;" parent="umGk_1h2bwM0Oz5YRKmP-31" vertex="1">
                    <mxGeometry x="880" y="442" width="60" height="40" as="geometry"/>
                </mxCell>
                <mxCell id="umGk_1h2bwM0Oz5YRKmP-27" value="" style="endArrow=classic;html=1;rounded=0;exitX=0.5;exitY=0;exitDx=0;exitDy=0;exitPerimeter=0;entryX=0.5;entryY=1;entryDx=0;entryDy=0;" parent="umGk_1h2bwM0Oz5YRKmP-31" source="umGk_1h2bwM0Oz5YRKmP-18" target="umGk_1h2bwM0Oz5YRKmP-15" edge="1">
                    <mxGeometry width="50" height="50" relative="1" as="geometry">
                        <mxPoint x="880" y="122" as="sourcePoint"/>
                        <mxPoint x="930" y="72" as="targetPoint"/>
                    </mxGeometry>
                </mxCell>
                <mxCell id="umGk_1h2bwM0Oz5YRKmP-28" value="" style="endArrow=classic;html=1;rounded=0;exitX=0.5;exitY=1;exitDx=0;exitDy=0;entryX=0.5;entryY=0;entryDx=0;entryDy=0;entryPerimeter=0;" parent="umGk_1h2bwM0Oz5YRKmP-31" source="umGk_1h2bwM0Oz5YRKmP-16" target="umGk_1h2bwM0Oz5YRKmP-23" edge="1">
                    <mxGeometry width="50" height="50" relative="1" as="geometry">
                        <mxPoint x="600" y="452" as="sourcePoint"/>
                        <mxPoint x="600" y="412" as="targetPoint"/>
                    </mxGeometry>
                </mxCell>
                <mxCell id="umGk_1h2bwM0Oz5YRKmP-29" value="" style="endArrow=classic;html=1;rounded=0;exitX=0.5;exitY=1;exitDx=0;exitDy=0;entryX=0.5;entryY=0;entryDx=0;entryDy=0;entryPerimeter=0;" parent="umGk_1h2bwM0Oz5YRKmP-31" source="umGk_1h2bwM0Oz5YRKmP-17" target="umGk_1h2bwM0Oz5YRKmP-26" edge="1">
                    <mxGeometry width="50" height="50" relative="1" as="geometry">
                        <mxPoint x="880" y="122" as="sourcePoint"/>
                        <mxPoint x="910" y="432" as="targetPoint"/>
                    </mxGeometry>
                </mxCell>
                <mxCell id="umGk_1h2bwM0Oz5YRKmP-30" value="XWCApp" style="text;html=1;align=center;verticalAlign=middle;whiteSpace=wrap;rounded=0;fontSize=26;fontColor=#3399FF;" parent="umGk_1h2bwM0Oz5YRKmP-31" vertex="1">
                    <mxGeometry x="300" width="110" height="30" as="geometry"/>
                </mxCell>
                <mxCell id="umGk_1h2bwM0Oz5YRKmP-9" value="&lt;font style=&quot;font-size: 26px;&quot;&gt;device&lt;/font&gt;" style="ellipse;whiteSpace=wrap;html=1;aspect=fixed;fillColor=#CC6600;strokeColor=#CC6600;fillStyle=solid;opacity=50;strokeWidth=6;" parent="1" vertex="1">
                    <mxGeometry x="-355" y="880" width="170" height="170" as="geometry"/>
                </mxCell>
                <mxCell id="umGk_1h2bwM0Oz5YRKmP-13" value="" style="endArrow=classic;startArrow=classic;html=1;rounded=0;exitX=0.5;exitY=0;exitDx=0;exitDy=0;entryX=0.5;entryY=1;entryDx=0;entryDy=0;fontColor=#CC6600;strokeColor=#CC6600;strokeWidth=3;" parent="1" source="umGk_1h2bwM0Oz5YRKmP-9" target="umGk_1h2bwM0Oz5YRKmP-10" edge="1">
                    <mxGeometry width="50" height="50" relative="1" as="geometry">
                        <mxPoint x="-20" y="480" as="sourcePoint"/>
                        <mxPoint x="30" y="430" as="targetPoint"/>
                    </mxGeometry>
                </mxCell>
            </root>
        </mxGraphModel>
    </diagram>
</mxfile>